<?xml version="1.0" encoding="UTF-8" standalone="no"?>
<!DOCTYPE svg PUBLIC "-//W3C//DTD SVG 1.1//EN" "http://www.w3.org/Graphics/SVG/1.1/DTD/svg11.dtd">
<svg width="100%" height="100%" viewBox="0 0 64 64" version="1.1" xmlns="http://www.w3.org/2000/svg" xmlns:xlink="http://www.w3.org/1999/xlink" xml:space="preserve" xmlns:serif="http://www.serif.com/" style="fill-rule:evenodd;clip-rule:evenodd;stroke-linejoin:round;stroke-miterlimit:2;">
    <g transform="matrix(1,0,0,1,-64,-320)">
        <g transform="matrix(0.5,0,0,0.375,0,0)">
            <g id="item_id_81---Piège-électrochoc" serif:id="item_id_81 - Piège électrochoc" transform="matrix(2,0,0,2.66667,-1408,853.333)">
                <g transform="matrix(0.923077,0,0,0.911765,61.5385,2.02941)">
                    <rect x="774" y="23" width="52" height="34" style="fill-opacity:0.75;"/>
                </g>
                <path d="M823,23L825,23C825,23 826,23 826,24L826,56C826,57 825,57 825,57L775,57C774,57 774,56 774,56L774,24C774,23 775,23 775,23L777,23C777,23 778,23 778,24L778,42L788,52L812,52L822,42L822,24C822,23 823,23 823,23ZM776,49L781,49L781,54L776,49ZM824,49L819,49L819,54L824,49Z" style="fill:rgb(194,199,0);"/>
                <path d="M803,43L803,45C803,45 803,48 806,48L811,48C811,48 811,46 809,46C807,46 806,46 806,45C806,44 807,43 808,43C809,43 811,42 814,39C817,36 818,35 818,30L818,13C818,8 813,8 811,8C809,8 806,10 806,13C806,16 808,18 810,18C812,18 813,17 813,17C813,17 808,17 808,14C808,11 810,11 812,11C814,11 815,13 815,19C815,25 814,27 812,29C810,31 808,32 807,32C806,32 804,30 804,29C804,28 810,23 810,23L800,23C800,23 798,24.5 798,26.5C798,28.5 802,32 802,32L798,32L794,28L794,23C794,23 797,22 797,20L797,8C797,7 796,7 796,7L785,7C784,7 784,8 784,8L784,10L788,14L788,19C788,19 786.5,21 785.5,21C784.5,21 782,18 782,18L782,11C782,11 782,10 781,10C780,10 780,11 780,11L780,21C780,21 782,22 782,23L782,33C782,34 791,43 792,43L797,43L797,45C797,46 796,46 796,46L794,46C792,46 792,48 792,48L797,48C798,48 800,45 800,45L800,43L803,43ZM792,16C793.104,16 794,16.896 794,18C794,19.104 793.104,20 792,20C790.896,20 790,19.104 790,18C790,16.896 790.896,16 792,16Z" style="fill:rgb(244,251,0);"/>
            </g>
        </g>
    </g>
</svg>
