<?xml version="1.0" encoding="UTF-8" standalone="no"?>
<!DOCTYPE svg PUBLIC "-//W3C//DTD SVG 1.1//EN" "http://www.w3.org/Graphics/SVG/1.1/DTD/svg11.dtd">
<svg width="100%" height="100%" viewBox="0 0 64 64" version="1.1" xmlns="http://www.w3.org/2000/svg" xmlns:xlink="http://www.w3.org/1999/xlink" xml:space="preserve" xmlns:serif="http://www.serif.com/" style="fill-rule:evenodd;clip-rule:evenodd;stroke-linejoin:round;stroke-miterlimit:2;">
    <g transform="matrix(1,0,0,1,-512,-384)">
        <g id="Set_Rank_09" transform="matrix(1,0,0,1,512,-512)">
            <g transform="matrix(1,0,0,1,-384,0)">
                <path d="M431,913L431,924.002L427,927L428,930L428,934L431,935L431,937L428,938L405,938L402,937L402,935L405,934L405,930L406,927L402,924.002L402,913L400,911L396,915L397,916L397,918L396,919L397,920L397,922L395,924.5L396,927L396,929L395,929.5L396,930L396,932L398,932L399,934L399,936L398,937L396,937L395,938L391,938L390,937L390,935L391,933.5L390,932L390,930L391,929.5L390,929L390,927L391,924.5L390,922L390,920L391,919L390,918L393,915L393,912L402,903L411,903L411,905L422,905L422,903L431,903L440,912L440,915L443,918L442,919L443,920L443,922L442,924.5L443,927L443,929L442,929.5L443,930L443,932L442,933.5L443,935L443,937L442,938L438,938L437,937L435,937L434,936L434,934L435,932L437,932L437,930L438,929.5L437,929L437,927L438,924.5L436,922L436,920L437,919L436,918L436,916L437,915L433,911L431,913Z" style="fill-opacity:0.76;"/>
            </g>
            <g id="Color_03" transform="matrix(1,0,0,1,-384,0)">
                <path d="M399,956L399,953L406,953L408,949L425,949L427,953L434,953L434,956L399,956ZM419,941L419,947L414,947L414,941L419,941Z" style="fill:rgb(108,36,61);"/>
            </g>
            <g id="Color_02" transform="matrix(1,0,0,1,-384,0)">
                <path d="M443,937L437,937L437,941L440,941C441.656,941 443,939.656 443,938L443,937ZM390,937L396,937L396,941L393,941C391.344,941 390,939.656 390,938L390,937ZM402,939L402,937L431,937L431,939L402,939ZM435,932L433,934L433,937L435,937L435,932ZM398,932L400,934L400,937L398,937L398,932ZM402,935L405,932L428,932L431,935L402,935ZM431,918L427,918L427,922L431,922L431,918ZM402,918L406,918L406,922L402,922L402,918ZM402,915L407,910L407,913L411,913L411,905L422,905L422,913L426,913L426,910L431,915L431,916L425,916L425,919L408,919L408,916L402,916L402,915ZM438,910L441,910L441,916L436,916L436,914L438,914L438,910ZM395,910L392,910L392,916L397,916L397,914L395,914L395,910Z" style="fill:rgb(143,49,83);"/>
            </g>
            <g id="Color_01" transform="matrix(1,0,0,1,-384,0)">
                <path d="M396,932L390,932L390,935L396,935L396,932ZM437,932L443,932L443,935L437,935L437,932ZM396,929L390,929L390,930L396,930L396,929ZM437,929L443,929L443,930L437,930L437,929ZM402,924L402,926L405,928L405,930L428,930L428,928L431,926L431,924L425,924L425,921L408,921L408,924L402,924ZM390,922L397,922L396,927L390,927L390,922ZM443,922L436,922L437,927L443,927L443,922ZM397,918L390,918L390,920L397,920L397,918ZM436,918L443,918L443,920L436,920L436,918ZM409,901L399,901L397,903L397,912L402,912L409,905L409,901ZM424,901L434,901L436,903L436,912L431,912L424,905L424,901Z" style="fill:rgb(191,69,113);"/>
            </g>
        </g>
    </g>
</svg>
