<?xml version="1.0" encoding="UTF-8" standalone="no"?>
<!DOCTYPE svg PUBLIC "-//W3C//DTD SVG 1.1//EN" "http://www.w3.org/Graphics/SVG/1.1/DTD/svg11.dtd">
<svg width="100%" height="100%" viewBox="0 0 64 64" version="1.1" xmlns="http://www.w3.org/2000/svg" xmlns:xlink="http://www.w3.org/1999/xlink" xml:space="preserve" xmlns:serif="http://www.serif.com/" style="fill-rule:evenodd;clip-rule:evenodd;stroke-linejoin:round;stroke-miterlimit:2;">
    <g transform="matrix(1,0,0,1,-256,-192)">
        <g transform="matrix(1,0,0,1,0,-544)">
            <g id="Dual_Blades_Rank_05" transform="matrix(1,0,0,1,64,-224)">
                <g id="background" transform="matrix(1,0,0,1,0,544)">
                    <path d="M241,454L241,462L234,468L234,455L231,455L234,451L241,454ZM208,454L208,462L215,468L215,455L218,455L215,451L208,454Z" style="fill-opacity:0.75;"/>
                </g>
                <g id="color_02" transform="matrix(1,0,0,1,0,544)">
                    <path d="M234.839,470.448C234.951,469.761 235.091,469.087 235.261,468.604C235.777,467.133 237.028,464.613 236.007,464C234.985,463.386 233.457,465.703 232.292,466.819C231.899,467.196 231.34,467.645 230.772,468.076C229.809,468.28 228.992,468.88 228.5,469.697L228.5,469.697L228.5,469.697C228.183,470.224 228,470.841 228,471.5C228,473.432 229.568,475 231.5,475C232.773,475 233.887,474.319 234.5,473.303L234.5,473.303L234.5,473.303C234.817,472.776 235,472.159 235,471.5C235,471.134 234.944,470.78 234.839,470.448ZM214.161,470.448C214.049,469.761 213.909,469.087 213.739,468.604C213.223,467.133 211.972,464.613 212.993,464C214.015,463.386 215.543,465.703 216.708,466.819C217.101,467.196 217.66,467.645 218.228,468.076C219.191,468.28 220.008,468.88 220.5,469.697L220.5,469.697L220.5,469.697C220.817,470.224 221,470.841 221,471.5C221,473.432 219.432,475 217.5,475C216.227,475 215.113,474.319 214.5,473.303L214.5,473.303L214.5,473.303C214.183,472.776 214,472.159 214,471.5C214,471.134 214.056,470.78 214.161,470.448Z" style="fill:rgb(28,61,66);"/>
                </g>
                <g id="color_01" transform="matrix(1,0,0,1,0,544)">
                    <path d="M227.336,454.757C228.209,453.524 230.009,453.038 231.355,453.674C231.355,453.674 235.648,454.843 238.942,456.261C242.236,457.679 246.529,460.848 246.529,460.848C247.875,461.484 248.259,463.002 247.386,464.235C246.514,465.469 244.713,465.954 243.367,465.318C243.367,465.318 240.639,463.439 236.269,460.963C231.898,458.486 228.193,458.145 228.193,458.145C226.847,457.509 226.463,455.991 227.336,454.757ZM221.664,454.757C220.791,453.524 218.991,453.038 217.645,453.674C217.645,453.674 213.352,454.843 210.058,456.261C206.764,457.679 202.471,460.848 202.471,460.848C201.125,461.484 200.741,463.002 201.614,464.235C202.486,465.469 204.287,465.954 205.633,465.318C205.633,465.318 208.361,463.439 212.731,460.963C217.102,458.486 220.807,458.145 220.807,458.145C222.153,457.509 222.537,455.991 221.664,454.757ZM241,454L234,451C234,451 240,441 240,434C240,427 232,422 232,422C232,422 247,425 247,435C247,445 241,454 241,454ZM208,454L215,451C215,451 209,441 209,434C209,427 217,422 217,422C217,422 202,425 202,435C202,445 208,454 208,454Z" style="fill:rgb(101,193,205);"/>
                </g>
            </g>
        </g>
    </g>
</svg>
