<?xml version="1.0" encoding="UTF-8" standalone="no"?>
<!DOCTYPE svg PUBLIC "-//W3C//DTD SVG 1.1//EN" "http://www.w3.org/Graphics/SVG/1.1/DTD/svg11.dtd">
<svg width="100%" height="100%" viewBox="0 0 64 64" version="1.1" xmlns="http://www.w3.org/2000/svg" xmlns:xlink="http://www.w3.org/1999/xlink" xml:space="preserve" xmlns:serif="http://www.serif.com/" style="fill-rule:evenodd;clip-rule:evenodd;stroke-linejoin:round;stroke-miterlimit:2;">
    <g transform="matrix(1,0,0,1,-384,-192)">
        <g id="Torso_Rank_07" transform="matrix(1,0,0,1,384,-704)">
            <g id="background" transform="matrix(1,0,0,1,-192,0)">
                <path d="M220,949.5L220,935L217,929L215,929L210,933L210,945L205,950L199,950L198,949L198,946L199,945L199,943L198,942L198,938L203,923L204,922L203,921L203,917L204,916L203,915L203,912L204,910.984L203,910L203,907L204,906L244,906L245,907L245,910L244,910.984L245,912L245,915L244,916L245,917L245,921L244,922L245,923L250,938L250,942L249,943L249,945L250,946L250,949L249,950L243,950L238,945L238,933L233,929L231,929L228,935L228,949.5L220,949.5Z" style="fill-opacity:0.76;"/>
            </g>
            <g id="Color_03" transform="matrix(1,0,0,1,-192,0)">
                <path d="M242,941L242,944L244,946L250,946L250,942C250,942 250,941 249,941L242,941ZM206,941L206,944L204,946L198,946L198,942C198,942 198,941 199,941L206,941ZM248,934C250,934 250,936 250,936L250,938L242,938L242,934L248,934ZM200,934C198,934 198,936 198,936L198,938L206,938L206,934L200,934Z" style="fill:rgb(88,53,152);"/>
            </g>
            <g id="Color_02" transform="matrix(1,0,0,1,-192,0)">
                <path d="M226,946C226,945.448 225.552,945 225,945L223,945C222.448,945 222,945.448 222,946C222,946.552 222.448,947 223,947L225,947C225.552,947 226,946.552 226,946ZM226,941C226,940.448 225.552,940 225,940L223,940C222.448,940 222,940.448 222,941C222,941.552 222.448,942 223,942L225,942C225.552,942 226,941.552 226,941ZM226,935C226,934.448 225.552,934 225,934L223,934C222.448,934 222,934.448 222,935C222,935.552 222.448,936 223,936L225,936C225.552,936 226,935.552 226,935ZM206,927C206,926.448 205.552,926 205,926L202,926C201.448,926 201,926.448 201,927L201,929C201,929.552 201.448,930 202,930L205,930C205.552,930 206,929.552 206,929L206,927ZM218,927C218,926.448 217.552,926 217,926L215,926C214.448,926 214,926.448 214,927L214,929C214,929.552 214.448,930 215,930L217,930C217.552,930 218,929.552 218,929L218,927ZM230,927C230,926.448 230.448,926 231,926L233,926C233.552,926 234,926.448 234,927L234,929C234,929.552 233.552,930 233,930L231,930C230.448,930 230,929.552 230,929L230,927ZM242,927C242,926.448 242.448,926 243,926L246,926C246.552,926 247,926.448 247,927L247,929C247,929.552 246.552,930 246,930L243,930C242.448,930 242,929.552 242,929L242,927ZM211,927C211,926.448 210.552,926 210,926C209.448,926 209,926.448 209,927C209,927.552 209.448,928 210,928C210.552,928 211,927.552 211,927ZM237,927C237,926.448 237.448,926 238,926C238.552,926 239,926.448 239,927C239,927.552 238.552,928 238,928C237.448,928 237,927.552 237,927ZM225,926L223,926C223,926 222,926 222,927C222,928 223,928 223,928L225,928C225,928 226,928 226,927C226,926 225,926 225,926Z" style="fill:rgb(113,70,193);"/>
            </g>
            <g id="Color_01" transform="matrix(1,0,0,1,-192,0)">
                <path d="M220,951C219,951 219,950 219,950L219,935C219,935 219,934 220,934C221,934 221,935 221,935L221,949L227,949L227,935C227,935 227,934 228,934C229,934 229,935 229,935L229,950C229,950 229,951 228,951L220,951ZM238,932C237,932 237,933 237,933L237,946L242,951L250,951L250,949L243,949L239,945L239,933C239,933 239,932 238,932ZM210,932C211,932 211,933 211,933L211,946L206,951L198,951L198,949L205,949L209,945L209,933C209,933 209,932 210,932ZM235,916C235,915.448 234.552,915 234,915L227,915C226.448,915 226,915.448 226,916L226,922C226,922.552 226.448,923 227,923L234,923C234.552,923 235,922.552 235,922L235,916ZM245,917C245,917 242,917 242,917C241.448,917 241,917.448 241,918L241,920C241,920.552 241.448,921 242,921L245,921C245,921 245,923 245,923L240,923C239.448,923 239,922.552 239,922L239,916C239,915.448 239.448,915 240,915L245,915L245,917ZM213,916C213,915.448 213.448,915 214,915L221,915C221.552,915 222,915.448 222,916L222,922C222,922.552 221.552,923 221,923L214,923C213.448,923 213,922.552 213,922L213,916ZM203,917C203,917 206,917 206,917C206.552,917 207,917.448 207,918L207,920C207,920.552 206.552,921 206,921L203,921C203,921 203,923 203,923L208,923C208.552,923 209,922.552 209,922L209,916C209,915.448 208.552,915 208,915L203,915L203,917ZM233,918C233,917.448 232.552,917 232,917L229,917C228.448,917 228,917.448 228,918L228,920C228,920.552 228.448,921 229,921L232,921C232.552,921 233,920.552 233,920L233,918ZM215,918C215,917.448 215.448,917 216,917L219,917C219.552,917 220,917.448 220,918L220,920C220,920.552 219.552,921 219,921L216,921C215.448,921 215,920.552 215,920L215,918ZM245,907C245,907 244,907 244,907C243.448,907 243,907.448 243,908L243,909C243,909.552 243.448,910 244,910L245,910C245,910 245,912 245,912L203,912L203,910C203,910 204,910 204,910C204.552,910 205,909.552 205,909L205,908C205,907.448 204.552,907 204,907L203,907C203,907 203,905 203,905L245,905L245,907ZM228,908C228,907.448 227.552,907 227,907L226,907C225.448,907 225,907.448 225,908L225,909C225,909.552 225.448,910 226,910L227,910C227.552,910 228,909.552 228,909L228,908ZM234,908C234,907.448 233.552,907 233,907L232,907C231.448,907 231,907.448 231,908L231,909C231,909.552 231.448,910 232,910L233,910C233.552,910 234,909.552 234,909L234,908ZM240,908C240,907.448 239.552,907 239,907L238,907C237.448,907 237,907.448 237,908L237,909C237,909.552 237.448,910 238,910L239,910C239.552,910 240,909.552 240,909L240,908ZM211,908C211,907.448 210.552,907 210,907L209,907C208.448,907 208,907.448 208,908L208,909C208,909.552 208.448,910 209,910L210,910C210.552,910 211,909.552 211,909L211,908ZM217,908C217,907.448 216.552,907 216,907L215,907C214.448,907 214,907.448 214,908L214,909C214,909.552 214.448,910 215,910L216,910C216.552,910 217,909.552 217,909L217,908ZM223,908C223,907.448 222.552,907 222,907L221,907C220.448,907 220,907.448 220,908L220,909C220,909.552 220.448,910 221,910L222,910C222.552,910 223,909.552 223,909L223,908Z" style="fill:rgb(158,99,255);"/>
            </g>
        </g>
    </g>
</svg>
