<?xml version="1.0" encoding="UTF-8" standalone="no"?>
<!DOCTYPE svg PUBLIC "-//W3C//DTD SVG 1.1//EN" "http://www.w3.org/Graphics/SVG/1.1/DTD/svg11.dtd">
<svg width="100%" height="100%" viewBox="0 0 64 64" version="1.1" xmlns="http://www.w3.org/2000/svg" xmlns:xlink="http://www.w3.org/1999/xlink" xml:space="preserve" xmlns:serif="http://www.serif.com/" style="fill-rule:evenodd;clip-rule:evenodd;stroke-linejoin:round;stroke-miterlimit:2;">
    <g transform="matrix(1,0,0,1,-448,-448)">
        <g transform="matrix(1,0,0,1,-448,-512)">
            <g id="Hunting_Horn_Rank_08" transform="matrix(1,0,0,1,448,0)">
                <path id="background" d="M496,971L501,971L501,997L500,997L500,1004L492,1013L480,1013L480,1016L469,1016L469,1015L457,1015L457,1000.5L467.5,990L496,990L496,971ZM469,983L474.5,977.5L469,974L469,983Z" style="fill-opacity:0.76;"/>
                <path id="color_02" d="M477,1014L472,1014L472,1019L477,1014ZM460,1015L457,1012L457,1015L460,1015ZM499,1007C499,1006.45 498.552,1006 498,1006L492,1006L492,1013L498,1013C498.552,1013 499,1012.55 499,1012L499,1007ZM507,997L500,997L500,1004L507,997ZM493,965L496,965C496,965 497,967 498.5,967C501,967 501,965 501,965L504,965L504,969L501,971L496,971L493,969L493,965Z" style="fill:rgb(174,95,58);"/>
                <path id="color_01" d="M501,984L501,994L498,994C497.448,994 497,994.448 497,995L497,1003L490,1003C489.448,1003 489,1003.45 489,1004L489,1013L486,1016L479,1016L479,1013C479,1012.45 478.552,1012 478,1012L471,1012C470.448,1012 470,1012.45 470,1013L470,1016L466,1016L455,1005L455,999L464,990L493,990L493,994L481,1006L468,1006L464,1002L469.5,996L473.5,1000L468,1000L471,1003L480.5,1003L469.5,992L460,1002L467,1009L483,1009L496,996L496,984L501,984ZM466,980L466,970L468,970C468,970 476,974 476,976C476,978 471,981 471,981C471,981 472,980 472,977.5C472,975 469,975 469,975L469,983C469,984.656 467.656,986 466,986L461,986C459.344,986 458,984.656 458,983C458,981.344 459.344,980 461,980L466,980ZM501,980L496,980L496,974L501,974L501,980Z" style="fill:rgb(220,121,76);"/>
            </g>
        </g>
    </g>
</svg>
