<?xml version="1.0" encoding="UTF-8" standalone="no"?>
<!DOCTYPE svg PUBLIC "-//W3C//DTD SVG 1.1//EN" "http://www.w3.org/Graphics/SVG/1.1/DTD/svg11.dtd">
<svg width="100%" height="100%" viewBox="0 0 64 64" version="1.1" xmlns="http://www.w3.org/2000/svg" xmlns:xlink="http://www.w3.org/1999/xlink" xml:space="preserve" xmlns:serif="http://www.serif.com/" style="fill-rule:evenodd;clip-rule:evenodd;stroke-linejoin:round;stroke-miterlimit:2;">
    <g transform="matrix(1,0,0,1,-320,-640)">
        <g transform="matrix(1,0,0,1,0,-544)">
            <g id="Insect_Glaive_Rank_06" transform="matrix(1,0,0,1,-320,224)">
                <path id="background" d="M666,1017L653,1017L649,1013L649,1010L667,1010L687,990L690,993L666,1017ZM650,980C650,980 653,976.5 653,974C653,971.172 659,971 659,971C659,971 665,971.172 665,974C665,976 668,980 668,980L650,980Z" style="fill-opacity:0.77;"/>
                <path id="color_04" d="M651,980L667,980L667,988L660,996L658,996L651,988L651,980Z" style="fill:rgb(11,11,42);"/>
                <path id="color_03" d="M667,1008L672,1013L670,1015L665,1010L667,1008ZM684,993L687,996L688,995L685,992L684,993ZM692,970.094C693.063,971.993 695,975.403 695,978C695,982.652 690.792,989.506 688.902,991.902L687,990C687,990 692,982 692,977L692,970.094ZM666,977C666,975.343 662.866,974 659,974C655.134,974 652,975.343 652,977L666,977ZM653,972C653.552,972 654,972.448 654,973C654,973.552 653.552,974 653,974C652.448,974 652,973.552 652,973C652,972.448 652.448,972 653,972ZM665,972C665.552,972 666,972.448 666,973C666,973.552 665.552,974 665,974C664.448,974 664,973.552 664,973C664,972.448 664.448,972 665,972ZM659,966C659,966 661,969 661,970C661,971 660,972 659,972C658,972 657,971 657,970C657,969 659,966 659,966Z" style="fill:rgb(57,59,139);"/>
                <path id="color_02" d="M669,1008L683,994L686,997L672,1011L669,1008ZM649,980L651,980L658,988L658,996C658,996 653,996 651,994C649,992 649,990 649,990L649,980ZM669,980L667,980L660,988L660,996C660,996 665,996 667,994C669,992 669,990 669,990L669,980Z" style="fill:rgb(73,76,174);"/>
                <path id="color_01" d="M656,1004C658,1004 658,1008.03 658,1008.03L658,1008.04C658,1008.04 660.293,1008.95 662,1010C664.639,1011.62 667,1013.78 667,1015C667,1017 666,1019 658,1019C650,1019 648,1014 648,1011.5C648,1009 649,1009 649,1009C649,1009 649,1005 651,1005L651,1008C651,1008 652,1007 654,1007L656,1007L656,1004ZM657.5,1014C658.328,1014 659,1014.67 659,1015.5C659,1016.33 658.328,1017 657.5,1017C656.672,1017 656,1016.33 656,1015.5C656,1014.67 656.672,1014 657.5,1014ZM662.5,1013C663.328,1013 664,1013.67 664,1014.5C664,1015.33 663.328,1016 662.5,1016C661.672,1016 661,1015.33 661,1014.5C661,1013.67 661.672,1013 662.5,1013ZM653,1011C654.104,1011 655,1011.9 655,1013C655,1014.1 654.104,1015 653,1015C651.896,1015 651,1014.1 651,1013C651,1011.9 651.896,1011 653,1011ZM654,980L659,985L664,980L654,980ZM687.902,990.902C689.792,988.506 694,982.652 694,978C694,975.403 693.063,972.993 692,971.094L692,968C692,968 697,973 697,979C697,985 690,993 690,993L687.902,990.902Z" style="fill:rgb(93,96,227);"/>
            </g>
        </g>
    </g>
</svg>
