<?xml version="1.0" encoding="UTF-8" standalone="no"?>
<!DOCTYPE svg PUBLIC "-//W3C//DTD SVG 1.1//EN" "http://www.w3.org/Graphics/SVG/1.1/DTD/svg11.dtd">
<svg width="100%" height="100%" viewBox="0 0 64 64" version="1.1" xmlns="http://www.w3.org/2000/svg" xmlns:xlink="http://www.w3.org/1999/xlink" xml:space="preserve" xmlns:serif="http://www.serif.com/" style="fill-rule:evenodd;clip-rule:evenodd;stroke-linejoin:round;stroke-miterlimit:2;">
    <g transform="matrix(1,0,0,1,-704,-64)">
        <g transform="matrix(1,0,0,1,-64,-896)">
            <g id="Great_Sword_Rank_12" transform="matrix(1,0,0,1,704,0)">
                <path id="background" d="M96,1002C96,1002 95.321,1011.32 99,1015C102.679,1018.68 112,1018 112,1018L112,1014C112,1014 107.679,1014.69 104.493,1011.51C101.308,1008.32 102,1001 102,1001L96,1002ZM87.503,1008.61L93.314,1006.01L93,982C93,982 111.265,967.616 111.265,967.202C111.265,966.581 109.264,965 108,965C106.736,965 88,979 88,979L87.503,1008.61ZM102.5,981.5L94.5,981.5L94.5,1000.5L102.5,1000.5L102.5,981.5Z" style="fill-opacity:0.76;"/>
                <path id="color_02" d="M91,1007L105,1001C105,1001 103,993.88 103,985C103,976.12 113.002,967 111,967C108.998,967 101.571,971.581 99,974C96.429,976.419 91,980.677 91,987L91,1007ZM98.5,993C100.432,993 102,994.568 102,996.5C102,998.432 100.432,1000 98.5,1000C96.568,1000 95,998.432 95,996.5C95,994.568 96.568,993 98.5,993ZM98.5,982C100.432,982 102,983.568 102,985.5C102,987.432 100.432,989 98.5,989C96.568,989 95,987.432 95,985.5C95,983.568 96.568,982 98.5,982Z" style="fill:rgb(121,161,168);"/>
                <path id="color_01" d="M106.977,1012.79C107.894,1012.79 108.443,1017.76 107.481,1018.73C106.519,1019.69 103,1018.12 103,1017.12C103,1016.12 106.06,1012.79 106.977,1012.79ZM113,1014L111,1014L111,1018L113,1018L113,1014ZM104.184,1010.25C105.069,1011.14 102.851,1013.25 102,1014C101.149,1014.75 99.747,1016.84 98.5,1015.59C97.253,1014.35 98.759,1013.25 100.132,1012C101.506,1010.75 103.299,1009.37 104.184,1010.25ZM89,1007.92L78,1013L78,989C78,983.905 79.472,978.528 87,971C93.528,964.472 105.478,965 108,965C110.522,965 101.951,968.588 96,974C90.668,978.849 89,982.639 89,987L89,1007.92ZM102.747,1005.62C103.928,1006.8 100.921,1008.5 100,1009C99.079,1009.5 96,1011.06 96,1009C96,1006.94 95.891,1008.79 99,1007C102.109,1005.21 101.565,1004.44 102.747,1005.62ZM98.5,995C99.328,995 100,995.672 100,996.5C100,997.328 99.328,998 98.5,998C97.672,998 97,997.328 97,996.5C97,995.672 97.672,995 98.5,995ZM98.5,984C99.328,984 100,984.672 100,985.5C100,986.328 99.328,987 98.5,987C97.672,987 97,986.328 97,985.5C97,984.672 97.672,984 98.5,984Z" style="fill:rgb(196,255,255);"/>
            </g>
        </g>
    </g>
</svg>
