<?xml version="1.0" encoding="UTF-8" standalone="no"?>
<!DOCTYPE svg PUBLIC "-//W3C//DTD SVG 1.1//EN" "http://www.w3.org/Graphics/SVG/1.1/DTD/svg11.dtd">
<svg width="100%" height="100%" viewBox="0 0 64 64" version="1.1" xmlns="http://www.w3.org/2000/svg" xmlns:xlink="http://www.w3.org/1999/xlink" xml:space="preserve" xmlns:serif="http://www.serif.com/" style="fill-rule:evenodd;clip-rule:evenodd;stroke-linejoin:round;stroke-miterlimit:2;">
    <g transform="matrix(1,0,0,1,-320,-576)">
        <g transform="matrix(1,0,0,1,-576,-384)">
            <g id="Charge_Blade_rank_06" transform="matrix(1,0,0,1,320,0)">
                <path id="background" d="M606,972L610,972L616,966L622,966L622,991L618,991L614,987L610,990L610,995.992L612,996.03L612,1011L610,1011L610,1017L606,1017L606,1012L605,1012L605,1009.03L604,1008.02L604,1003.02L605,1002L605,996L606,996L606,990L602,987L598,991L594,991L594,966L600,966L606,972Z" style="fill-opacity:0.76;"/>
                <path id="color_04" d="M600,975L616,975L616,984.95L608,990L600,984.95L600,975Z" style="fill:rgb(11,11,42);"/>
                <path id="color_03" d="M610,1016L606,1016L606,1018L610,1018L610,1016ZM613,1008C613,1007 612,1007 612,1007L611,1007L611,1010L612,1010C612,1010 613,1010 613,1009L613,1008ZM605,1007L604,1007C604,1007 603,1007 603,1008C603,1009 604,1009 604,1009L605,1009L605,1007ZM603,1003C603,1002 604,1002 604,1002L605,1002L605,1005L604,1005C604,1005 603,1005 603,1004L603,1003ZM611,998L612,998C612,998 613,998 613,999C613,1000 612,1000 612,1000L611,1000L611,998Z" style="fill:rgb(73,76,174);"/>
                <path id="color_02" d="M616,966L630,966L630,989L623,996L618,996L618,988L620,988L620,971L616,971L616,966ZM600,966L586,966L586,989L593,996L598,996L598,988L596,988L596,971L600,971L600,966ZM603,978L613,978L613,982.95L608,986L603,982.95L603,978Z" style="fill:rgb(57,59,139);"/>
                <path id="color_01" d="M608,1010L610,1010L610,1012L608,1012L608,1010ZM608,1000L610,1000L610,1002L612,1002C612,1002 613,1002 613,1003L613,1004C613,1005 612,1005 612,1005L610,1005L610,1007L608,1007L608,1000ZM605,996C605,996 605,995 606,995L610,995C611,995 611,996 611,996C611,996 611,997 610,997L607,997L607,1000C607,1000 605,1000 605,999L605,996ZM629,966L632,966C632,966 630,969.082 630,971.041L630,990L623,997L618,997L618,995.007C618,995.007 618,995 619,995C620,995 628,988 628,987C628,986 623,982 623,982C623,982 628,978 628,977C628,976 623,972 623,972C623,972 629,969 629,966ZM587,966L584,966C584,966 586,969.082 586,971.041L586,990L593,997L598,997L598,995.007C598,995.007 598,994.993 597,995C596,995.007 588,988 588,987C588,986 593,982 593,982C593,982 588,978 588,977C588,976 593,972 593,972C593,972 587,969 587,966ZM599,974L617,974L617,986L608,992L599,986L599,974ZM601,976L615,976L615,983.95L608,989L601,983.95L601,976Z" style="fill:rgb(93,96,227);"/>
            </g>
        </g>
    </g>
</svg>
