<?xml version="1.0" encoding="UTF-8" standalone="no"?>
<!DOCTYPE svg PUBLIC "-//W3C//DTD SVG 1.1//EN" "http://www.w3.org/Graphics/SVG/1.1/DTD/svg11.dtd">
<svg width="100%" height="100%" viewBox="0 0 64 64" version="1.1" xmlns="http://www.w3.org/2000/svg" xmlns:xlink="http://www.w3.org/1999/xlink" xml:space="preserve" xmlns:serif="http://www.serif.com/" style="fill-rule:evenodd;clip-rule:evenodd;stroke-linejoin:round;stroke-miterlimit:2;">
    <g transform="matrix(1,0,0,1,-256,0)">
        <g transform="matrix(1,0,0,1,0,-960)">
            <g id="Sword_-_Shield_Rank_05" serif:id="Sword_&amp;_Shield_Rank_05" transform="matrix(1,0,0,1,256,0)">
                <path id="background" d="M19,1003L23,1003L23,1007L19,1007L19,1016L14,1016L14,999L19,999L19,1003ZM54.5,988.5L38.5,988.5L38.5,1004.5L54.5,1004.5L54.5,988.5Z" style="fill-opacity:0.76;"/>
                <path id="color_03" d="M51.5,992.5C51.5,991.948 51.052,991.5 50.5,991.5L42.5,991.5C41.948,991.5 41.5,991.948 41.5,992.5L41.5,1000.5C41.5,1001.05 41.948,1001.5 42.5,1001.5L50.5,1001.5C51.052,1001.5 51.5,1001.05 51.5,1000.5L51.5,992.5Z" style="fill:rgb(15,36,39);"/>
                <path id="color_02" d="M19,1015L14,1015L14,1017L19,1017L19,1015ZM19,1010L14,1010L14,1013L19,1013L19,1010Z" style="fill:rgb(60,113,121);"/>
                <path id="color_01" d="M58.716,998C58.035,1003.59 53.595,1008.03 48,1008.72L48,1007C48,1006.45 47.552,1006 47,1006L46,1006C45.448,1006 45,1006.45 45,1007L45,1008.72C39.405,1008.03 34.965,1003.59 34.284,998L36,998C36.552,998 37,997.552 37,997L37,996C37,995.448 36.552,995 36,995L34.284,995C34.965,989.406 39.405,984.965 45,984.284L45,986C45,986.552 45.448,987 46,987L47,987C47.552,987 48,986.552 48,986L48,984.284C53.595,984.965 58.035,989.406 58.716,995L57,995C56.448,995 56,995.448 56,996L56,997C56,997.552 56.448,998 57,998L58.716,998ZM20,1003L20,1007L7,1007C6.448,1007 6,1006.55 6,1006L6,1004C6,1003.45 6.448,1003 7,1003L20,1003ZM22,1003L24,1003C24.552,1003 25,1003.45 25,1004L25,1006C25,1006.55 24.552,1007 24,1007L22,1007L22,1003ZM53,991C53,990.448 52.552,990 52,990L41,990C40.448,990 40,990.448 40,991L40,1002C40,1002.55 40.448,1003 41,1003L52,1003C52.552,1003 53,1002.55 53,1002L53,991ZM14,1000L19,1000L19,967L18,967L14,971L14,1000Z" style="fill:rgb(101,193,205);"/>
            </g>
        </g>
    </g>
</svg>
