<?xml version="1.0" encoding="UTF-8" standalone="no"?>
<!DOCTYPE svg PUBLIC "-//W3C//DTD SVG 1.1//EN" "http://www.w3.org/Graphics/SVG/1.1/DTD/svg11.dtd">
<svg width="100%" height="100%" viewBox="0 0 64 64" version="1.1" xmlns="http://www.w3.org/2000/svg" xmlns:xlink="http://www.w3.org/1999/xlink" xml:space="preserve" xmlns:serif="http://www.serif.com/" style="fill-rule:evenodd;clip-rule:evenodd;stroke-linejoin:round;stroke-miterlimit:2;">
    <g transform="matrix(1,0,0,1,-320,-256)">
        <g transform="matrix(1,0,0,1,-256,-704)">
            <g id="Lance_Rank_06" transform="matrix(1,0,0,1,320,0)">
                <path id="background" d="M300,974L300,1012L297,1012L293,1008L293,976L297,974L300,974ZM276,1008L272,1008L272,1010L276,1010L276,1008ZM281.066,999C281.622,999.992 282.23,1001.02 282.825,1002L265.175,1002C265.769,1001.02 266.378,999.993 266.934,999L281.066,999ZM311,979L303,979L303,987L311,987L311,979Z" style="fill-opacity:0.76;"/>
                <path id="color_02" d="M299,974L299,1012L297,1012L294,1009L294,975.5L297,974L299,974Z" style="fill:rgb(58,60,150);"/>
                <path id="color_01" d="M276,1010L272,1010L272,1019L276,1019L276,1010ZM300,974L305,974L315,979L315,986L312,989L312,1005L305,1012L300,1012L300,974ZM282.825,1002C284.467,1004.7 286,1007 286,1007C286,1007 286,1008 285,1008L263,1008C262,1008 262,1007 262,1007C262,1007 263.533,1004.7 265.175,1002L282.825,1002ZM293,976L293,1008L290,1005L290,989L287,986L287,979L293,976ZM266.934,999C267.323,998.304 267.686,997.628 268,997C270,993 274,965 274,965C274,965 278,993 280,997C280.314,997.628 280.677,998.304 281.066,999L266.934,999ZM307,980.879L308.414,979.464C309,978.879 309.95,978.879 310.536,979.464C311.121,980.05 311.121,981 310.536,981.586L309.121,983L310.536,984.414C311.121,985 311.121,985.95 310.536,986.536C309.95,987.121 309,987.121 308.414,986.536L307,985.121L305.586,986.536C305,987.121 304.05,987.121 303.464,986.536C302.879,985.95 302.879,985 303.464,984.414L304.879,983L303.464,981.586C302.879,981 302.879,980.05 303.464,979.464C304.05,978.879 305,978.879 305.586,979.464L307,980.879Z" style="fill:rgb(93,96,227);"/>
            </g>
        </g>
    </g>
</svg>
