<?xml version="1.0" encoding="UTF-8" standalone="no"?>
<!DOCTYPE svg PUBLIC "-//W3C//DTD SVG 1.1//EN" "http://www.w3.org/Graphics/SVG/1.1/DTD/svg11.dtd">
<svg width="100%" height="100%" viewBox="0 0 64 64" version="1.1" xmlns="http://www.w3.org/2000/svg" xmlns:xlink="http://www.w3.org/1999/xlink" xml:space="preserve" xmlns:serif="http://www.serif.com/" style="fill-rule:evenodd;clip-rule:evenodd;stroke-linejoin:round;stroke-miterlimit:2;">
    <g transform="matrix(1,0,0,1,-256,-128)">
        <g transform="matrix(1,0,0,1,-128,-832)">
            <g id="Long_Sword_Rank_05" transform="matrix(1,0,0,1,256,0)">
                <path id="background" d="M177.345,973.633L180.594,969.121L185.594,972.121L173,992L167,988L175.861,975.694L171,975L171,973.01L177.345,973.633ZM144.509,965.879C144.509,965.879 143.337,967.576 142,969C140.663,970.424 139.428,970.869 139.428,970.869C139.428,970.869 141.067,973.081 141,975C140.933,976.919 140,979.005 140,979.005L152,979.005L155,976L160.121,975.795L160.192,973.796L155,974L151.834,972.005C151.834,972.005 151.293,970.956 150.034,969.697C148.775,968.438 144.509,965.879 144.509,965.879Z" style="fill-opacity:0.76;"/>
                <path id="color_02" d="M170.158,990.105C167.164,994.001 156.954,1007.03 152,1010C146.714,1013.17 143.1,1015.51 134.792,1015.93C133.952,1014.67 134,1013 134,1013C134,1013 142.281,1013.01 149,1008C155.719,1002.99 167,988 167,988L170.158,990.105ZM180.183,982.167C180.482,981.703 180.348,981.084 179.884,980.785L174.841,977.534C174.377,977.235 173.757,977.369 173.458,977.833C173.159,978.297 173.293,978.916 173.757,979.215L178.801,982.466C179.265,982.765 179.884,982.631 180.183,982.167ZM151.834,979.005C154.181,979.005 156.084,977.438 156.084,975.505C156.084,973.572 154.181,972.005 151.834,972.005L151.834,979.005ZM150,977.995C150,977.446 149.554,977 149.005,977L138.995,977C138.446,977 138,977.446 138,977.995L138,978.005C138,978.554 138.446,979 138.995,979L149.005,979C149.554,979 150,978.554 150,978.005L150,977.995ZM183.202,977.662C183.501,977.199 183.367,976.579 182.903,976.28L178.076,973.169C177.612,972.87 176.992,973.004 176.693,973.468L176.155,974.304C175.856,974.768 175.99,975.387 176.454,975.686L181.281,978.797C181.745,979.096 182.364,978.962 182.663,978.498L183.202,977.662ZM172.071,973.929C172.031,973.382 171.554,972.969 171.006,973.009L160.025,973.808C159.478,973.848 159.065,974.325 159.105,974.872C159.145,975.42 159.622,975.832 160.17,975.793L171.151,974.994C171.698,974.954 172.111,974.477 172.071,973.929ZM149.983,974.146C150.156,973.625 149.872,973.062 149.351,972.889L139.847,969.748C139.325,969.575 138.762,969.859 138.59,970.38L138.273,971.339C138.1,971.86 138.384,972.424 138.905,972.596L148.409,975.738C148.931,975.91 149.494,975.627 149.666,975.105L149.983,974.146ZM185.876,972.934C186.175,972.47 186.041,971.85 185.577,971.551L185.116,971.254C184.652,970.955 184.033,971.089 183.734,971.553L183.192,972.394C182.893,972.857 183.027,973.477 183.491,973.776L183.952,974.073C184.416,974.372 185.035,974.238 185.334,973.774L185.876,972.934ZM181.845,970.487C182.144,970.023 182.01,969.404 181.546,969.105L181.085,968.807C180.621,968.508 180.002,968.642 179.703,969.106L179.161,969.947C178.862,970.411 178.996,971.03 179.46,971.329L179.921,971.626C180.385,971.925 181.005,971.791 181.304,971.328L181.845,970.487ZM149.951,970.65C150.305,970.23 150.253,969.602 149.833,969.248L145.241,965.37C144.822,965.016 144.194,965.069 143.839,965.488L143.188,966.26C142.833,966.679 142.886,967.308 143.306,967.662L147.897,971.54C148.317,971.894 148.945,971.841 149.299,971.421L149.951,970.65Z" style="fill:rgb(50,110,119);"/>
                <path id="color_01" d="M170.158,990.105L173,992C173,992 156.489,1012.78 150,1016C143.511,1019.22 138.087,1018 136,1017C135.469,1016.75 135.079,1016.36 134.792,1015.93C143.1,1015.51 146.714,1013.17 152,1010C156.954,1007.03 167.164,994.001 170.158,990.105ZM180.11,989.628C180.744,988.724 180.523,987.475 179.619,986.842L169.789,979.959C168.885,979.326 167.637,979.546 167.004,980.451C166.371,981.355 166.591,982.603 167.495,983.236L177.325,990.119C178.229,990.752 179.477,990.532 180.11,989.628Z" style="fill:rgb(101,193,205);"/>
            </g>
        </g>
    </g>
</svg>
