<?xml version="1.0" encoding="UTF-8" standalone="no"?>
<!DOCTYPE svg PUBLIC "-//W3C//DTD SVG 1.1//EN" "http://www.w3.org/Graphics/SVG/1.1/DTD/svg11.dtd">
<svg width="100%" height="100%" viewBox="0 0 64 64" version="1.1" xmlns="http://www.w3.org/2000/svg" xmlns:xlink="http://www.w3.org/1999/xlink" xml:space="preserve" xmlns:serif="http://www.serif.com/" style="fill-rule:evenodd;clip-rule:evenodd;stroke-linejoin:round;stroke-miterlimit:2;">
    <g transform="matrix(1,0,0,1,-192,-704)">
        <g transform="matrix(1,0,0,1,0,-544)">
            <g id="Light_Bowgun_Rank_04" transform="matrix(1,0,0,1,-512,288)">
                <path d="M734,1007L734,1003L733,995L739,995L738,1003L738,1007L734,1007ZM747,1003L742,1005L742,1007L747,1007L747,1003ZM720,989L713,989L713,995L720,995L720,989ZM752,989L759,989L759,995L752,995L752,989ZM738,973L746,973L742.4,979L729.4,979L727,973L734,973L734,966L738,966L738,973Z" style="fill-opacity:0.77;"/>
                <path id="color_02" d="M733.047,1010.88C733.531,1009.67 734,1008.45 734,1007C734,1004 735,1003 736,1003C737,1003 738,1004 738,1007C738,1008.45 738.469,1009.67 738.953,1010.88L739.047,1011.12C739.531,1012.33 740,1013.55 740,1015C740,1018 739,1019 736,1019C733,1019 732,1018 732,1015C732,1013.55 732.469,1012.33 732.953,1011.12L733.047,1010.88ZM741,1008L741,1005C741,1004.45 741.448,1004 742,1004C742.552,1004 743,1004.45 743,1005L743,1006L746,1006L746,1004C746,1003.45 746.448,1003 747,1003C747.552,1003 748,1003.45 748,1004L748,1008L741,1008Z" style="fill:rgb(58,143,50);"/>
                <path id="color_01" d="M743,978L729,978L729,988L734,1003L734,997C734,997 734,996 736,996C738,996 738,997 738,997L738,1003L743,988L743,978ZM728,974L723,979L723,992C723,994 721,998 717,998C713,998 710,994 710,992C710,990 712,988 714,988C716,988 716,989 716,989C716,989 714,990 714,992C714,994 717,994 717,994C717,994 719,994 719,992L719,978L726,971L746,971L753,978L753,992C753,994 755,994 755,994C755,994 758,994 758,992C758,990 756,989 756,989C756,989 756,988 758,988C760,988 762,990 762,992C762,994 759,998 755,998C751,998 749,994 749,992L749,979L744,974L728,974ZM738,965L734,965L734,967C734,967.552 734.448,968 735,968L737,968C737.552,968 738,967.552 738,967L738,965Z" style="fill:rgb(74,181,64);"/>
            </g>
        </g>
    </g>
</svg>
