<?xml version="1.0" encoding="UTF-8" standalone="no"?>
<!DOCTYPE svg PUBLIC "-//W3C//DTD SVG 1.1//EN" "http://www.w3.org/Graphics/SVG/1.1/DTD/svg11.dtd">
<svg width="100%" height="100%" viewBox="0 0 64 64" version="1.1" xmlns="http://www.w3.org/2000/svg" xmlns:xlink="http://www.w3.org/1999/xlink" xml:space="preserve" xmlns:serif="http://www.serif.com/" style="fill-rule:evenodd;clip-rule:evenodd;stroke-linejoin:round;stroke-miterlimit:2;">
    <g transform="matrix(1,0,0,1,-704,-832)">
        <g transform="matrix(1,0,0,1,-832,-128)">
            <g id="Bow_Rank_12" transform="matrix(1,0,0,1,704,0)">
                <path id="background" d="M850.441,1016.46L847.612,1013.63L851.905,1009.34L854.734,1012.17L850.441,1016.46ZM844.027,991L848,989C848,989 851,982 855,982C859,982 865,990 867,990L871,990L878,983L894,983L886,991L886,993L894,1001L878,1001L871,994L867,994C865,994 858,1003 854,1003C850,1003 848,995 848,995L844,993L844.027,991ZM850.441,967.754L847.612,970.582L851.905,974.875L854.734,972.047L850.441,967.754Z" style="fill-opacity:0.77;"/>
                <path id="color_02" d="M857,996L857,1000C857,1002 854,1004 854,1006C854,1008 857,1009 861,1009C865,1009 867,1008 869,1008C871,1008 873,1011 873,1013C873,1015 870,1019 869,1019C868,1019 866,1019 866,1018C866,1017 869,1016 869,1014C869,1012 868,1011 866,1011C864,1011 860,1013 856,1013C852,1013 850,1011 850,1008C850,1005 855,1001 855,999L855,996C855,996 855,995 856,995C857,995 857,996 857,996ZM887,1001L884,1001L878,995L881,995L887,1001ZM841,989L836,992L841,995L845,995L845,989L841,989ZM887,983L884,983L878,989L881,989L887,983ZM869.012,965C870.023,965.031 873,969.008 873,971C873,973 871,976 869,976C867,976 865,975 861,975C857,975 854,976 854,978C854,978.937 854.659,979.875 855.36,980.813L855.64,981.188C856.341,982.125 857,983.063 857,984L857,988C857,988 857,989 856,989C855,989 855,988 855,988L855,985C855,983 850,979 850,976C850,973 852,971 856,971C860,971 864,973 866,973C868,973 869,972 869,970C869,968 866,967 866,966C866,965 868,965 869,965L869.012,965Z" style="fill:rgb(153,216,216);"/>
                <path id="color_01" d="M848.441,1018.46C847.66,1019.24 846.393,1019.24 845.612,1018.46C844.832,1017.68 844.832,1016.41 845.612,1015.63L847.905,1013.34L850.734,1016.17L848.441,1018.46ZM892,1001L889,1001L883,995L886,995L892,1001ZM882,1001L879,1001L873,995L876,995L882,1001ZM852,997C852,998.656 850.656,1000 849,1000C848.448,1000 848,999.552 848,999L848,995L852,995L852,997ZM864,998C864,999.104 863.104,1000 862,1000L860,1000L860,995L864,995L864,998ZM886,991L848,991L848,993L886,993L886,991ZM892,983L889,983L883,989L886,989L892,983ZM882,983L879,983L873,989L876,989L882,983ZM852,987C852,985.344 850.656,984 849,984C848.448,984 848,984.448 848,985L848,989L852,989L852,987ZM864,986C864,984.896 863.104,984 862,984L860,984L860,989L864,989L864,986ZM848.441,965.754C847.66,964.973 846.393,964.973 845.612,965.754C844.832,966.534 844.832,967.802 845.612,968.582L847.905,970.875L850.734,968.047L848.441,965.754Z" style="fill:rgb(196,255,255);"/>
            </g>
        </g>
    </g>
</svg>
