<?xml version="1.0" encoding="UTF-8" standalone="no"?>
<!DOCTYPE svg PUBLIC "-//W3C//DTD SVG 1.1//EN" "http://www.w3.org/Graphics/SVG/1.1/DTD/svg11.dtd">
<svg width="100%" height="100%" viewBox="0 0 64 64" version="1.1" xmlns="http://www.w3.org/2000/svg" xmlns:xlink="http://www.w3.org/1999/xlink" xml:space="preserve" xmlns:serif="http://www.serif.com/" style="fill-rule:evenodd;clip-rule:evenodd;stroke-linejoin:round;stroke-miterlimit:2;">
    <g transform="matrix(1,0,0,1,-64,-384)">
        <g transform="matrix(1,0,0,1,-384,-576)">
            <g id="Hammer_Rank_02" transform="matrix(1,0,0,1,64,0)">
                <g id="background" transform="matrix(1,0,0,1,1,0)">
                    <path d="M401,975.01L396,980.005L396,986.005L401,991.005L412.5,991.005L412.5,1013L417.5,1013L417.5,991.005L429,991.005L434,986.005L434,980.005L429,975.005L423,975.005L418,970L412,970L407,975.005L401,975.01Z" style="fill-opacity:0.76;"/>
                </g>
                <g id="color_02" transform="matrix(1,0,0,1,1,0)">
                    <path d="M417.5,1007L412.5,1007L412.5,1010L417.5,1010L417.5,1007ZM417.5,1002L412.5,1002L412.5,1005L417.5,1005L417.5,1002ZM431,975.01C431,973.906 430.104,973.01 429,973.01L401,973.01C399.896,973.01 399,973.906 399,975.01L399,991C399,992.104 399.896,993 401,993L429,993C430.104,993 431,992.104 431,991L431,975.01ZM423,980.005C423,977.797 421.208,976.005 419,976.005L411,976.005C408.792,976.005 407,977.797 407,980.005L407,986.005C407,988.213 408.792,990.005 411,990.005L419,990.005C421.208,990.005 423,988.213 423,986.005L423,980.005Z" style="fill:rgb(184,184,184);"/>
                </g>
                <g id="color_01" transform="matrix(1,0,0,1,1,0)">
                    <path d="M417.5,1013L412.5,1013L412.5,1019L417.5,1019L417.5,1013ZM417.5,997L412.5,997L412.5,1000L417.5,1000L417.5,997ZM421,980C421,979.448 420.552,979 420,979L410,979C409.448,979 409,979.448 409,980L409,986C409,986.552 409.448,987 410,987L420,987C420.552,987 421,986.552 421,986L421,980ZM396,986.005L393,983.005L396,980.005L396,986.005ZM437,983.005L434,986.005L434,980.005L437,983.005ZM418,982C418,981.448 417.552,981 417,981L413,981C412.448,981 412,981.448 412,982L412,984C412,984.552 412.448,985 413,985L417,985C417.552,985 418,984.552 418,984L418,982ZM418,970L412,970L415,967L418,970Z" style="fill:white;"/>
                </g>
            </g>
        </g>
    </g>
</svg>
