<?xml version="1.0" encoding="UTF-8" standalone="no"?>
<!DOCTYPE svg PUBLIC "-//W3C//DTD SVG 1.1//EN" "http://www.w3.org/Graphics/SVG/1.1/DTD/svg11.dtd">
<svg width="100%" height="100%" viewBox="0 0 64 64" version="1.1" xmlns="http://www.w3.org/2000/svg" xmlns:xlink="http://www.w3.org/1999/xlink" xml:space="preserve" xmlns:serif="http://www.serif.com/" style="fill-rule:evenodd;clip-rule:evenodd;stroke-linejoin:round;stroke-miterlimit:2;">
    <g transform="matrix(1,0,0,1,-128,-768)">
        <g transform="matrix(1,0,0,1,0,-544)">
            <g id="Heavy_Bowgun_Rank_03" transform="matrix(1,0,0,1,-640,352)">
                <path id="background" d="M793.4,972L795,968L796,967L804,967L805,968L806.6,972L810,972L811,973L811,979L808,982L805,982L805,991L810,991L811,992L811,993L810,994L804,994L804,996L810,1002L809,1003L809,1011L791,1011L791,1003L790,1002L796,996L795,991L795,982L792,982L789,979L789,973L790,972L793.4,972Z" style="fill-opacity:0.77;"/>
                <path id="color_03" d="M802,1002L802,1007.33C802,1007.7 801.701,1008 801.333,1008L798.667,1008C798.299,1008 798,1007.7 798,1007.33L798,1002L802,1002ZM798,999L798,996C798,994.896 798.896,994 800,994C801.104,994 802,994.896 802,996L802,999L798,999Z" style="fill:rgb(58,72,9);"/>
                <path id="color_02" d="M803,1002L810,1002L810,1018L790,1018L790,1002L797,1002L797,1009C797,1009.55 797.448,1010 798,1010L802,1010C802.552,1010 803,1009.55 803,1009L803,1002ZM815,1007C814.448,1007 814,1006.55 814,1006L814,994L810,994L810,991L816,991C816.552,991 817,991.448 817,992L817,1004L820,1004C820.552,1004 821,1004.45 821,1005L821,1006C821,1006.55 820.552,1007 820,1007L815,1007ZM797,999L793,999L793,990C793,989.448 793.448,989 794,989L806,989C806.552,989 807,989.448 807,990L807,999L803,999L803,995C803,993.344 801.656,992 800,992C798.344,992 797,993.344 797,995L797,999ZM805,984L795,984L795,986L805,986L805,984ZM807,973C807,971.896 806.104,971 805,971L795,971C793.896,971 793,971.896 793,973L793,981C793,981.552 793.448,982 794,982L806,982C806.552,982 807,981.552 807,981L807,973ZM805,965L795,965L795,968L805,968L805,965Z" style="fill:rgb(136,166,33);"/>
                <path id="color_01" d="M775.953,984.406C775.469,983.436 775,982.422 775,980C775,975 773.95,972 784,972L790,972L790,980C790,980 787,978 784,978C781,978 780,980 780,982L780,988C780,992 780,994 778,996L773,996C773,993.578 773.939,993.033 774.906,992.547L775.094,992.453C776.061,991.967 777,991.422 777,989C777,986.578 776.531,985.564 776.047,984.594L775.953,984.406ZM810,972L816,972C826.05,972 825,975 825,980C825,985 823,984 823,989C823,994 827,991 827,996L822,996C820,994 820,992 820,988L820,982C820,980 819,978 816,978C813,978 810,980 810,980L810,972Z" style="fill:rgb(174,213,46);"/>
            </g>
        </g>
    </g>
</svg>
