<?xml version="1.0" encoding="UTF-8" standalone="no"?>
<!DOCTYPE svg PUBLIC "-//W3C//DTD SVG 1.1//EN" "http://www.w3.org/Graphics/SVG/1.1/DTD/svg11.dtd">
<svg width="100%" height="100%" viewBox="0 0 64 64" version="1.1" xmlns="http://www.w3.org/2000/svg" xmlns:xlink="http://www.w3.org/1999/xlink" xml:space="preserve" xmlns:serif="http://www.serif.com/" style="fill-rule:evenodd;clip-rule:evenodd;stroke-linejoin:round;stroke-miterlimit:2;">
    <g transform="matrix(1,0,0,1,0,-320)">
        <g transform="matrix(1,0,0,1,-320,-640)">
            <g id="Gunlance_Rank_01">
                <path id="background" d="M362,975L355,981L355,1002L362,1012L366,1012L373,1002L373,981L366,975L362,975ZM336,1010L332,1006L332,997L328,997L328,991L335,991L335,983L333,983L332,982L332,969L336,973L343,973L342,977L342,991L346,991L346,997L345,997L345,1006L341,1010L336,1010Z" style="fill-opacity:0.76;"/>
                <path id="color_02" d="M363,992L355,992L355,1007L360,1012L363,1012L363,992ZM361,995C361,994.448 360.552,994 360,994L358,994C357.448,994 357,994.448 357,995L357,999C357,999.552 357.448,1000 358,1000L360,1000C360.552,1000 361,999.552 361,999L361,995ZM365,975L365,990L373,990L378,984L378,980C378,980 374.595,979.666 372,978C369.405,976.334 369,975 369,975L365,975ZM371,983C371,982.448 370.552,982 370,982L368,982C367.448,982 367,982.448 367,983L367,987C367,987.552 367.448,988 368,988L370,988C370.552,988 371,987.552 371,987L371,983Z" style="fill:rgb(135,135,135);"/>
                <path id="color_01" d="M335,1016L335,1009L342,1009L342,1016.02C341.99,1017.67 340.649,1019 339,1019L334,1019C332.896,1019 332,1018.1 332,1017C332,1016.45 332.448,1016 333,1016L335,1016ZM365,992L373,992L373,1007L368,1012L365,1012L365,992ZM345,1000L349,1007L328,1007L332,1000L345,1000ZM371,995C371,994.448 370.552,994 370,994L368,994C367.448,994 367,994.448 367,995L367,999C367,999.552 367.448,1000 368,1000L370,1000C370.552,1000 371,999.552 371,999L371,995ZM347,998L327,998L327,992C327,991.448 327.448,991 328,991L329,991L329,996L334,996L334,992C334,991.448 334.448,991 335,991L339,991C339.552,991 340,991.448 340,992L340,996L345,996L345,991L346,991C346.552,991 347,991.448 347,992L347,998ZM363,975L363,990L355,990L350,984L350,980C350,980 353.405,979.666 356,978C358.595,976.334 359,975 359,975L363,975ZM342,977C342,976.448 341.552,976 341,976L336,976C335.448,976 335,976.448 335,977L335,989L342,989L342,977ZM361,983C361,982.448 360.552,982 360,982L358,982C357.448,982 357,982.448 357,983L357,987C357,987.552 357.448,988 358,988L360,988C360.552,988 361,987.552 361,987L361,983ZM333,983L333,966L332,966L326,969L326,983L333,983ZM344,973C344,972.448 343.552,972 343,972L335,972L335,974L343,974C343.552,974 344,973.552 344,973Z" style="fill:rgb(181,181,181);"/>
            </g>
        </g>
    </g>
</svg>
